<?xml version="1.0" encoding="us-ascii" standalone="no"?><svg xmlns="http://www.w3.org/2000/svg" xmlns:xlink="http://www.w3.org/1999/xlink" contentStyleType="text/css" height="852px" preserveAspectRatio="none" style="width:1267px;height:852px;background:#FFFFFF;" version="1.1" viewBox="0 0 1267 852" width="1267.2px" zoomAndPan="magnify"><defs/><g><!--cluster pygame--><g id="cluster_pygame"><path d="M753.3,742.2 L786.3,742.2 A2.25,2.25 0 0 1 787.8,743.7 L792,756.9727 L840.3,756.9727 A1.5,1.5 0 0 1 841.8,758.4727 L841.8,842.7 A1.5,1.5 0 0 1 840.3,844.2 L753.3,844.2 A1.5,1.5 0 0 1 751.8,842.7 L751.8,743.7 A1.5,1.5 0 0 1 753.3,742.2 " fill="none" style="stroke:#000000;stroke-width:0.8999999999999999;"/><line style="stroke:#000000;stroke-width:0.8999999999999999;" x1="751.8" x2="792" y1="756.9727" y2="756.9727"/><text fill="#000000" font-family="sans-serif" font-size="8.4" font-weight="bold" lengthAdjust="spacing" textLength="32.4" x="754.2" y="752.4645">pygame</text></g><!--cluster sprite--><g id="cluster_sprite"><path d="M767.7,769.2 L792.9,769.2 A2.25,2.25 0 0 1 794.4,770.7 L798.6,783.9727 L825.9,783.9727 A1.5,1.5 0 0 1 827.4,785.4727 L827.4,828.3 A1.5,1.5 0 0 1 825.9,829.8 L767.7,829.8 A1.5,1.5 0 0 1 766.2,828.3 L766.2,770.7 A1.5,1.5 0 0 1 767.7,769.2 " fill="none" style="stroke:#000000;stroke-width:0.8999999999999999;"/><line style="stroke:#000000;stroke-width:0.8999999999999999;" x1="766.2" x2="798.6" y1="783.9727" y2="783.9727"/><text fill="#000000" font-family="sans-serif" font-size="8.4" font-weight="bold" lengthAdjust="spacing" textLength="24.6" x="768.6" y="779.4645">sprite</text></g><!--class Sprite--><g id="elem_Sprite"><rect codeLine="20" fill="#F1F1F1" height="28.8" id="Sprite" rx="1.5" ry="1.5" style="stroke:#181818;stroke-width:0.3;" width="41.4" x="776.1" y="791.4"/><ellipse cx="785.1" cy="801" fill="#ADD1B2" rx="6.6" ry="6.6" style="stroke:#181818;stroke-width:0.6;"/><path d="M786.7594,798.525 Q786.8531,798.3938 786.9656,798.3281 Q787.0781,798.2625 787.2094,798.2625 Q787.4344,798.2625 787.575,798.4219 Q787.7156,798.5719 787.7156,798.9375 L787.7156,799.8094 Q787.7156,800.175 787.575,800.3344 Q787.4344,800.4938 787.2094,800.4938 Q787.0031,800.4938 786.8813,800.3719 Q786.7594,800.2594 786.6938,799.95 Q786.6656,799.7344 786.5531,799.6219 Q786.3562,799.3969 785.9906,799.2656 Q785.625,799.1344 785.25,799.1344 Q784.7906,799.1344 784.4063,799.3313 Q784.0313,799.5281 783.7312,799.9781 Q783.4406,800.4281 783.4406,801.0469 L783.4406,801.7031 Q783.4406,802.4438 783.975,802.9406 Q784.5094,803.4281 785.4656,803.4281 Q786.0281,803.4281 786.4219,803.2781 Q786.6563,803.1844 786.9094,802.9219 Q787.0688,802.7625 787.1531,802.7156 Q787.2469,802.6687 787.3688,802.6687 Q787.5656,802.6687 787.7156,802.8281 Q787.875,802.9781 787.875,803.1844 Q787.875,803.3906 787.6687,803.6344 Q787.3688,803.9812 786.8906,804.1781 Q786.2438,804.45 785.4656,804.45 Q784.5563,804.45 783.8344,804.075 Q783.2438,803.775 782.8313,803.1375 Q782.4187,802.4906 782.4187,801.7219 L782.4187,801.0281 Q782.4187,800.2312 782.7844,799.5469 Q783.1594,798.8531 783.8156,798.4875 Q784.4719,798.1125 785.2125,798.1125 Q785.6531,798.1125 786.0375,798.2156 Q786.4313,798.3094 786.7594,798.525 Z " fill="#000000"/><text fill="#000000" font-family="sans-serif" font-size="8.4" lengthAdjust="spacing" textLength="22.2" x="793.5" y="804.4781">Sprite</text><line style="stroke:#181818;stroke-width:0.3;" x1="776.7" x2="816.9" y1="810.6" y2="810.6"/><line style="stroke:#181818;stroke-width:0.3;" x1="776.7" x2="816.9" y1="815.4" y2="815.4"/></g><!--class Monde--><g id="elem_Monde"><rect codeLine="2" fill="#F1F1F1" height="185.2172" id="Monde" rx="1.5" ry="1.5" style="stroke:#181818;stroke-width:0.3;" width="124.2" x="734.7" y="4.2"/><ellipse cx="781.35" cy="13.8" fill="#ADD1B2" rx="6.6" ry="6.6" style="stroke:#181818;stroke-width:0.6;"/><path d="M783.0094,11.325 Q783.1031,11.1938 783.2156,11.1281 Q783.3281,11.0625 783.4594,11.0625 Q783.6844,11.0625 783.825,11.2219 Q783.9656,11.3719 783.9656,11.7375 L783.9656,12.6094 Q783.9656,12.975 783.825,13.1344 Q783.6844,13.2938 783.4594,13.2938 Q783.2531,13.2938 783.1313,13.1719 Q783.0094,13.0594 782.9438,12.75 Q782.9156,12.5344 782.8031,12.4219 Q782.6062,12.1969 782.2406,12.0656 Q781.875,11.9344 781.5,11.9344 Q781.0406,11.9344 780.6563,12.1313 Q780.2813,12.3281 779.9812,12.7781 Q779.6906,13.2281 779.6906,13.8469 L779.6906,14.5031 Q779.6906,15.2437 780.225,15.7406 Q780.7594,16.2281 781.7156,16.2281 Q782.2781,16.2281 782.6719,16.0781 Q782.9063,15.9844 783.1594,15.7219 Q783.3188,15.5625 783.4031,15.5156 Q783.4969,15.4688 783.6188,15.4688 Q783.8156,15.4688 783.9656,15.6281 Q784.125,15.7781 784.125,15.9844 Q784.125,16.1906 783.9187,16.4344 Q783.6188,16.7813 783.1406,16.9781 Q782.4938,17.25 781.7156,17.25 Q780.8063,17.25 780.0844,16.875 Q779.4938,16.575 779.0813,15.9375 Q778.6687,15.2906 778.6687,14.5219 L778.6687,13.8281 Q778.6687,13.0313 779.0344,12.3469 Q779.4094,11.6531 780.0656,11.2875 Q780.7219,10.9125 781.4625,10.9125 Q781.9031,10.9125 782.2875,11.0156 Q782.6813,11.1094 783.0094,11.325 Z " fill="#000000"/><text fill="#000000" font-family="sans-serif" font-size="8.4" lengthAdjust="spacing" textLength="25.8" x="793.65" y="17.2781">Monde</text><line style="stroke:#181818;stroke-width:0.3;" x1="735.3" x2="858.3" y1="23.4" y2="23.4"/><text fill="#000000" font-family="sans-serif" font-size="8.4" lengthAdjust="spacing" textLength="64.2" x="738.3" y="34.8645">Fenetre: Surface</text><text fill="#000000" font-family="sans-serif" font-size="8.4" lengthAdjust="spacing" textLength="69" x="738.3" y="46.0371">EnCours: Boolean</text><text fill="#000000" font-family="sans-serif" font-size="8.4" lengthAdjust="spacing" textLength="55.2" x="738.3" y="57.2098">Horloge: Clock</text><text fill="#000000" font-family="sans-serif" font-size="8.4" lengthAdjust="spacing" textLength="33" x="738.3" y="68.3824">tours: Int</text><line style="stroke:#181818;stroke-width:0.3;" x1="735.3" x2="858.3" y1="72.8906" y2="72.8906"/><text fill="#000000" font-family="sans-serif" font-size="8.4" lengthAdjust="spacing" textLength="109.8" x="738.3" y="84.3551">NouveauOurs(self, co=None)</text><text fill="#000000" font-family="sans-serif" font-size="8.4" lengthAdjust="spacing" textLength="117" x="738.3" y="95.5277">NouveauArbre(self, co = None)</text><text fill="#000000" font-family="sans-serif" font-size="8.4" lengthAdjust="spacing" textLength="81" x="738.3" y="106.7004">NouveauHomme(self)</text><text fill="#000000" font-family="sans-serif" font-size="8.4" lengthAdjust="spacing" textLength="79.8" x="738.3" y="117.873">NouvelleFemme(self)</text><text fill="#000000" font-family="sans-serif" font-size="8.4" lengthAdjust="spacing" textLength="77.4" x="738.3" y="129.0457">hangling_event(self)</text><text fill="#000000" font-family="sans-serif" font-size="8.4" lengthAdjust="spacing" textLength="45.6" x="738.3" y="140.2184">update(self)</text><text fill="#000000" font-family="sans-serif" font-size="8.4" lengthAdjust="spacing" textLength="75.6" x="738.3" y="151.391">displayFenetre(self)</text><text fill="#000000" font-family="sans-serif" font-size="8.4" lengthAdjust="spacing" textLength="45.6" x="738.3" y="162.5637">display(self)</text><text fill="#000000" font-family="sans-serif" font-size="8.4" lengthAdjust="spacing" textLength="28.2" x="738.3" y="173.7363">fin(self)</text><text fill="#000000" font-family="sans-serif" font-size="8.4" lengthAdjust="spacing" textLength="31.8" x="738.3" y="184.909">run(self)</text></g><!--class Humain--><g id="elem_Humain"><rect codeLine="22" fill="#F1F1F1" height="274.5984" id="Humain" rx="1.5" ry="1.5" style="stroke:#181818;stroke-width:0.3;" width="408.6" x="123.9" y="439.2"/><ellipse cx="311.55" cy="448.8" fill="#ADD1B2" rx="6.6" ry="6.6" style="stroke:#181818;stroke-width:0.6;"/><path d="M313.2094,446.325 Q313.3031,446.1937 313.4156,446.1281 Q313.5281,446.0625 313.6594,446.0625 Q313.8844,446.0625 314.025,446.2219 Q314.1656,446.3719 314.1656,446.7375 L314.1656,447.6094 Q314.1656,447.975 314.025,448.1344 Q313.8844,448.2938 313.6594,448.2938 Q313.4531,448.2938 313.3313,448.1719 Q313.2094,448.0594 313.1438,447.75 Q313.1156,447.5344 313.0031,447.4219 Q312.8063,447.1969 312.4406,447.0656 Q312.075,446.9344 311.7,446.9344 Q311.2406,446.9344 310.8563,447.1312 Q310.4813,447.3281 310.1813,447.7781 Q309.8906,448.2281 309.8906,448.8469 L309.8906,449.5031 Q309.8906,450.2438 310.425,450.7406 Q310.9594,451.2281 311.9156,451.2281 Q312.4781,451.2281 312.8719,451.0781 Q313.1063,450.9844 313.3594,450.7219 Q313.5188,450.5625 313.6031,450.5156 Q313.6969,450.4688 313.8187,450.4688 Q314.0156,450.4688 314.1656,450.6281 Q314.325,450.7781 314.325,450.9844 Q314.325,451.1906 314.1188,451.4344 Q313.8187,451.7813 313.3406,451.9781 Q312.6937,452.25 311.9156,452.25 Q311.0062,452.25 310.2844,451.875 Q309.6937,451.575 309.2813,450.9375 Q308.8688,450.2906 308.8688,449.5219 L308.8688,448.8281 Q308.8688,448.0313 309.2344,447.3469 Q309.6094,446.6531 310.2656,446.2875 Q310.9219,445.9125 311.6625,445.9125 Q312.1031,445.9125 312.4875,446.0156 Q312.8812,446.1094 313.2094,446.325 Z " fill="#000000"/><text fill="#000000" font-family="sans-serif" font-size="8.4" lengthAdjust="spacing" textLength="28.2" x="323.85" y="452.2781">Humain</text><line style="stroke:#181818;stroke-width:0.3;" x1="124.5" x2="531.9" y1="458.4" y2="458.4"/><text fill="#000000" font-family="sans-serif" font-size="8.4" lengthAdjust="spacing" textLength="43.2" x="127.5" y="469.8645">type: String</text><text fill="#000000" font-family="sans-serif" font-size="8.4" lengthAdjust="spacing" textLength="24.6" x="127.5" y="481.0371">vie: Int</text><text fill="#000000" font-family="sans-serif" font-size="8.4" lengthAdjust="spacing" textLength="28.2" x="127.5" y="492.2098">age: Int</text><text fill="#000000" font-family="sans-serif" font-size="8.4" lengthAdjust="spacing" textLength="48.6" x="127.5" y="503.3824">Nouriture: Int</text><text fill="#000000" font-family="sans-serif" font-size="8.4" lengthAdjust="spacing" textLength="49.8" x="127.5" y="514.5551">maxNouriture</text><text fill="#000000" font-family="sans-serif" font-size="8.4" lengthAdjust="spacing" textLength="35.4" x="127.5" y="525.7277">vision: Int</text><text fill="#000000" font-family="sans-serif" font-size="8.4" lengthAdjust="spacing" textLength="37.2" x="127.5" y="536.9004">speed: Int</text><text fill="#000000" font-family="sans-serif" font-size="8.4" lengthAdjust="spacing" textLength="87.6" x="127.5" y="548.073">ViseImportant: Boolean</text><text fill="#000000" font-family="sans-serif" font-size="8.4" lengthAdjust="spacing" textLength="57" x="127.5" y="559.2457">Image: Surface</text><text fill="#000000" font-family="sans-serif" font-size="8.4" lengthAdjust="spacing" textLength="39.6" x="127.5" y="570.4184">Rect: Rect</text><text fill="#000000" font-family="sans-serif" font-size="8.4" lengthAdjust="spacing" textLength="56.4" x="127.5" y="581.591">objectif: [2]Int{}</text><text fill="#000000" font-family="sans-serif" font-size="8.4" lengthAdjust="spacing" textLength="61.2" x="127.5" y="592.7637">Active : Boolean</text><line style="stroke:#181818;stroke-width:0.3;" x1="124.5" x2="531.9" y1="597.2719" y2="597.2719"/><text fill="#000000" font-family="sans-serif" font-size="8.4" lengthAdjust="spacing" textLength="401.4" x="127.5" y="608.7363">&#171;create&#187;(apparence: String, sexe: String, coordonne: (Int, Int) = None, vision: Int =None, speed: Int =None)</text><text fill="#000000" font-family="sans-serif" font-size="8.4" lengthAdjust="spacing" textLength="67.8" x="127.5" y="619.909">draw(self, screen)</text><text fill="#000000" font-family="sans-serif" font-size="8.4" lengthAdjust="spacing" textLength="61.8" x="127.5" y="631.0816">co(self): (Int, Int)</text><text fill="#000000" font-family="sans-serif" font-size="8.4" lengthAdjust="spacing" textLength="60" x="127.5" y="642.2543">info(self): String</text><text fill="#000000" font-family="sans-serif" font-size="8.4" lengthAdjust="spacing" textLength="126" x="127.5" y="653.427">choisirObjectif(self, ListeElement)</text><text fill="#000000" font-family="sans-serif" font-size="8.4" lengthAdjust="spacing" textLength="49.8" x="127.5" y="664.5996">avancer(self)</text><text fill="#000000" font-family="sans-serif" font-size="8.4" lengthAdjust="spacing" textLength="83.4" x="127.5" y="675.7723">check_click(self, bool)</text><text fill="#000000" font-family="sans-serif" font-size="8.4" lengthAdjust="spacing" textLength="185.4" x="127.5" y="686.9449">ChangerValeurs(self, ListeElement, ListeHumain)</text><text fill="#000000" font-family="sans-serif" font-size="8.4" lengthAdjust="spacing" textLength="150" x="127.5" y="698.1176">update(self, ListeElement, ListeHumain)</text><text fill="#000000" font-family="sans-serif" font-size="8.4" lengthAdjust="spacing" textLength="60.6" x="127.5" y="709.2902">hurt(self, degat)</text></g><!--class Homme--><g id="elem_Homme"><rect codeLine="48" fill="#F1F1F1" height="73.4906" id="Homme" rx="1.5" ry="1.5" style="stroke:#181818;stroke-width:0.3;" width="291.6" x="4.2" y="769.2"/><ellipse cx="133.35" cy="778.8" fill="#ADD1B2" rx="6.6" ry="6.6" style="stroke:#181818;stroke-width:0.6;"/><path d="M135.0094,776.325 Q135.1031,776.1938 135.2156,776.1281 Q135.3281,776.0625 135.4594,776.0625 Q135.6844,776.0625 135.825,776.2219 Q135.9656,776.3719 135.9656,776.7375 L135.9656,777.6094 Q135.9656,777.975 135.825,778.1344 Q135.6844,778.2937 135.4594,778.2937 Q135.2531,778.2937 135.1313,778.1719 Q135.0094,778.0594 134.9438,777.75 Q134.9156,777.5344 134.8031,777.4219 Q134.6063,777.1969 134.2406,777.0656 Q133.875,776.9344 133.5,776.9344 Q133.0406,776.9344 132.6563,777.1313 Q132.2813,777.3281 131.9813,777.7781 Q131.6906,778.2281 131.6906,778.8469 L131.6906,779.5031 Q131.6906,780.2438 132.225,780.7406 Q132.7594,781.2281 133.7156,781.2281 Q134.2781,781.2281 134.6719,781.0781 Q134.9063,780.9844 135.1594,780.7219 Q135.3188,780.5625 135.4031,780.5156 Q135.4969,780.4688 135.6188,780.4688 Q135.8156,780.4688 135.9656,780.6281 Q136.125,780.7781 136.125,780.9844 Q136.125,781.1906 135.9188,781.4344 Q135.6188,781.7813 135.1406,781.9781 Q134.4938,782.25 133.7156,782.25 Q132.8063,782.25 132.0844,781.875 Q131.4938,781.575 131.0812,780.9375 Q130.6688,780.2906 130.6688,779.5219 L130.6688,778.8281 Q130.6688,778.0313 131.0344,777.3469 Q131.4094,776.6531 132.0656,776.2875 Q132.7219,775.9125 133.4625,775.9125 Q133.9031,775.9125 134.2875,776.0156 Q134.6813,776.1094 135.0094,776.325 Z " fill="#000000"/><text fill="#000000" font-family="sans-serif" font-size="8.4" lengthAdjust="spacing" textLength="28.2" x="145.65" y="782.2781">Homme</text><line style="stroke:#181818;stroke-width:0.3;" x1="4.8" x2="295.2" y1="788.4" y2="788.4"/><text fill="#000000" font-family="sans-serif" font-size="8.4" lengthAdjust="spacing" textLength="56.4" x="7.8" y="799.8645">dispo: Boolean</text><line style="stroke:#181818;stroke-width:0.3;" x1="4.8" x2="295.2" y1="804.3727" y2="804.3727"/><text fill="#000000" font-family="sans-serif" font-size="8.4" lengthAdjust="spacing" textLength="284.4" x="7.8" y="815.8371">&#171;create&#187;(coordonne : (Int, Int) = None, vision: Int =None, speed: Int = None)</text><text fill="#000000" font-family="sans-serif" font-size="8.4" lengthAdjust="spacing" textLength="40.8" x="7.8" y="827.0098">Dispo(self)</text><text fill="#000000" font-family="sans-serif" font-size="8.4" lengthAdjust="spacing" textLength="58.8" x="7.8" y="838.1824">interaction(self)</text></g><!--class Femme--><g id="elem_Femme"><rect codeLine="56" fill="#F1F1F1" height="84.6633" id="Femme" rx="1.5" ry="1.5" style="stroke:#181818;stroke-width:0.3;" width="291.6" x="316.8" y="763.5"/><ellipse cx="445.95" cy="773.1" fill="#ADD1B2" rx="6.6" ry="6.6" style="stroke:#181818;stroke-width:0.6;"/><path d="M447.6094,770.625 Q447.7031,770.4938 447.8156,770.4281 Q447.9281,770.3625 448.0594,770.3625 Q448.2844,770.3625 448.425,770.5219 Q448.5656,770.6719 448.5656,771.0375 L448.5656,771.9094 Q448.5656,772.275 448.425,772.4344 Q448.2844,772.5938 448.0594,772.5938 Q447.8531,772.5938 447.7313,772.4719 Q447.6094,772.3594 447.5438,772.05 Q447.5156,771.8344 447.4031,771.7219 Q447.2063,771.4969 446.8406,771.3656 Q446.475,771.2344 446.1,771.2344 Q445.6406,771.2344 445.2562,771.4313 Q444.8812,771.6281 444.5813,772.0781 Q444.2906,772.5281 444.2906,773.1469 L444.2906,773.8031 Q444.2906,774.5437 444.825,775.0406 Q445.3594,775.5281 446.3156,775.5281 Q446.8781,775.5281 447.2719,775.3781 Q447.5062,775.2844 447.7594,775.0219 Q447.9188,774.8625 448.0031,774.8156 Q448.0969,774.7688 448.2188,774.7688 Q448.4156,774.7688 448.5656,774.9281 Q448.725,775.0781 448.725,775.2844 Q448.725,775.4906 448.5188,775.7344 Q448.2188,776.0813 447.7406,776.2781 Q447.0938,776.55 446.3156,776.55 Q445.4063,776.55 444.6844,776.175 Q444.0938,775.875 443.6813,775.2375 Q443.2688,774.5906 443.2688,773.8219 L443.2688,773.1281 Q443.2688,772.3313 443.6344,771.6469 Q444.0094,770.9531 444.6656,770.5875 Q445.3219,770.2125 446.0625,770.2125 Q446.5031,770.2125 446.8875,770.3156 Q447.2813,770.4094 447.6094,770.625 Z " fill="#000000"/><text fill="#000000" font-family="sans-serif" font-size="8.4" lengthAdjust="spacing" textLength="28.2" x="458.25" y="776.5781">Femme</text><line style="stroke:#181818;stroke-width:0.3;" x1="317.4" x2="607.8" y1="782.7" y2="782.7"/><text fill="#000000" font-family="sans-serif" font-size="8.4" lengthAdjust="spacing" textLength="56.4" x="320.4" y="794.1645">dispo: Boolean</text><line style="stroke:#181818;stroke-width:0.3;" x1="317.4" x2="607.8" y1="798.6727" y2="798.6727"/><text fill="#000000" font-family="sans-serif" font-size="8.4" lengthAdjust="spacing" textLength="284.4" x="320.4" y="810.1371">&#171;create&#187;(coordonne : (Int, Int) = None, vision: Int =None, speed: Int = None)</text><text fill="#000000" font-family="sans-serif" font-size="8.4" lengthAdjust="spacing" textLength="40.8" x="320.4" y="821.3098">Dispo(self)</text><text fill="#000000" font-family="sans-serif" font-size="8.4" lengthAdjust="spacing" textLength="58.8" x="320.4" y="832.4824">interaction(self)</text><text fill="#000000" font-family="sans-serif" font-size="8.4" lengthAdjust="spacing" textLength="242.4" x="320.4" y="843.6551">gestationEnCours(self, ListeElement, ListeHumain, vision=None)</text></g><!--class Arbre--><g id="elem_Arbre"><rect codeLine="65" fill="#F1F1F1" height="151.6992" id="Arbre" rx="1.5" ry="1.5" style="stroke:#181818;stroke-width:0.3;" width="148.2" x="553.5" y="500.7"/><ellipse cx="614.55" cy="510.3" fill="#ADD1B2" rx="6.6" ry="6.6" style="stroke:#181818;stroke-width:0.6;"/><path d="M616.2094,507.825 Q616.3031,507.6937 616.4156,507.6281 Q616.5281,507.5625 616.6594,507.5625 Q616.8844,507.5625 617.025,507.7219 Q617.1656,507.8719 617.1656,508.2375 L617.1656,509.1094 Q617.1656,509.475 617.025,509.6344 Q616.8844,509.7938 616.6594,509.7938 Q616.4531,509.7938 616.3313,509.6719 Q616.2094,509.5594 616.1438,509.25 Q616.1156,509.0344 616.0031,508.9219 Q615.8063,508.6969 615.4406,508.5656 Q615.075,508.4344 614.7,508.4344 Q614.2406,508.4344 613.8562,508.6312 Q613.4812,508.8281 613.1813,509.2781 Q612.8906,509.7281 612.8906,510.3469 L612.8906,511.0031 Q612.8906,511.7438 613.425,512.2406 Q613.9594,512.7281 614.9156,512.7281 Q615.4781,512.7281 615.8719,512.5781 Q616.1062,512.4844 616.3594,512.2219 Q616.5188,512.0625 616.6031,512.0156 Q616.6969,511.9688 616.8188,511.9688 Q617.0156,511.9688 617.1656,512.1281 Q617.325,512.2781 617.325,512.4844 Q617.325,512.6906 617.1188,512.9344 Q616.8188,513.2813 616.3406,513.4781 Q615.6938,513.75 614.9156,513.75 Q614.0063,513.75 613.2844,513.375 Q612.6938,513.075 612.2813,512.4375 Q611.8688,511.7906 611.8688,511.0219 L611.8688,510.3281 Q611.8688,509.5313 612.2344,508.8469 Q612.6094,508.1531 613.2656,507.7875 Q613.9219,507.4125 614.6625,507.4125 Q615.1031,507.4125 615.4875,507.5156 Q615.8813,507.6094 616.2094,507.825 Z " fill="#000000"/><text fill="#000000" font-family="sans-serif" font-size="8.4" lengthAdjust="spacing" textLength="21" x="626.85" y="513.7781">Arbre</text><line style="stroke:#181818;stroke-width:0.3;" x1="554.1" x2="701.1" y1="519.9" y2="519.9"/><text fill="#000000" font-family="sans-serif" font-size="8.4" lengthAdjust="spacing" textLength="43.2" x="557.1" y="531.3645">type: String</text><text fill="#000000" font-family="sans-serif" font-size="8.4" lengthAdjust="spacing" textLength="57" x="557.1" y="542.5371">Image: Surface</text><text fill="#000000" font-family="sans-serif" font-size="8.4" lengthAdjust="spacing" textLength="39.6" x="557.1" y="553.7098">Rect: Rect</text><text fill="#000000" font-family="sans-serif" font-size="8.4" lengthAdjust="spacing" textLength="64.2" x="557.1" y="564.8824">Pomme: Boolean</text><text fill="#000000" font-family="sans-serif" font-size="8.4" lengthAdjust="spacing" textLength="58.8" x="557.1" y="576.0551">Active: Boolean</text><line style="stroke:#181818;stroke-width:0.3;" x1="554.1" x2="701.1" y1="580.5633" y2="580.5633"/><text fill="#000000" font-family="sans-serif" font-size="8.4" lengthAdjust="spacing" textLength="141" x="557.1" y="592.0277">&#171;create&#187;(coordonne: (Int, Int) =None)</text><text fill="#000000" font-family="sans-serif" font-size="8.4" lengthAdjust="spacing" textLength="67.8" x="557.1" y="603.2004">draw(self, screen)</text><text fill="#000000" font-family="sans-serif" font-size="8.4" lengthAdjust="spacing" textLength="49.2" x="557.1" y="614.373">modifier(self)</text><text fill="#000000" font-family="sans-serif" font-size="8.4" lengthAdjust="spacing" textLength="61.8" x="557.1" y="625.5457">co(self): (Int, Int)</text><text fill="#000000" font-family="sans-serif" font-size="8.4" lengthAdjust="spacing" textLength="58.8" x="557.1" y="636.7184">interaction(self)</text><text fill="#000000" font-family="sans-serif" font-size="8.4" lengthAdjust="spacing" textLength="83.4" x="557.1" y="647.891">check_click(self, bool)</text></g><!--class Ours--><g id="elem_Ours"><rect codeLine="80" fill="#F1F1F1" height="229.9078" id="Ours" rx="1.5" ry="1.5" style="stroke:#181818;stroke-width:0.3;" width="148.2" x="722.7" y="461.7"/><ellipse cx="784.95" cy="471.3" fill="#ADD1B2" rx="6.6" ry="6.6" style="stroke:#181818;stroke-width:0.6;"/><path d="M786.6094,468.825 Q786.7031,468.6937 786.8156,468.6281 Q786.9281,468.5625 787.0594,468.5625 Q787.2844,468.5625 787.425,468.7219 Q787.5656,468.8719 787.5656,469.2375 L787.5656,470.1094 Q787.5656,470.475 787.425,470.6344 Q787.2844,470.7938 787.0594,470.7938 Q786.8531,470.7938 786.7312,470.6719 Q786.6094,470.5594 786.5437,470.25 Q786.5156,470.0344 786.4031,469.9219 Q786.2063,469.6969 785.8406,469.5656 Q785.475,469.4344 785.1,469.4344 Q784.6406,469.4344 784.2563,469.6312 Q783.8813,469.8281 783.5813,470.2781 Q783.2906,470.7281 783.2906,471.3469 L783.2906,472.0031 Q783.2906,472.7438 783.825,473.2406 Q784.3594,473.7281 785.3156,473.7281 Q785.8781,473.7281 786.2719,473.5781 Q786.5063,473.4844 786.7594,473.2219 Q786.9187,473.0625 787.0031,473.0156 Q787.0969,472.9688 787.2188,472.9688 Q787.4156,472.9688 787.5656,473.1281 Q787.725,473.2781 787.725,473.4844 Q787.725,473.6906 787.5188,473.9344 Q787.2188,474.2813 786.7406,474.4781 Q786.0938,474.75 785.3156,474.75 Q784.4063,474.75 783.6844,474.375 Q783.0938,474.075 782.6813,473.4375 Q782.2688,472.7906 782.2688,472.0219 L782.2688,471.3281 Q782.2688,470.5313 782.6344,469.8469 Q783.0094,469.1531 783.6656,468.7875 Q784.3219,468.4125 785.0625,468.4125 Q785.5031,468.4125 785.8875,468.5156 Q786.2813,468.6094 786.6094,468.825 Z " fill="#000000"/><text fill="#000000" font-family="sans-serif" font-size="8.4" lengthAdjust="spacing" textLength="18.6" x="797.25" y="474.7781">Ours</text><line style="stroke:#181818;stroke-width:0.3;" x1="723.3" x2="870.3" y1="480.9" y2="480.9"/><text fill="#000000" font-family="sans-serif" font-size="8.4" lengthAdjust="spacing" textLength="43.2" x="726.3" y="492.3645">type: String</text><text fill="#000000" font-family="sans-serif" font-size="8.4" lengthAdjust="spacing" textLength="24.6" x="726.3" y="503.5371">vie: Int</text><text fill="#000000" font-family="sans-serif" font-size="8.4" lengthAdjust="spacing" textLength="28.2" x="726.3" y="514.7098">age: Int</text><text fill="#000000" font-family="sans-serif" font-size="8.4" lengthAdjust="spacing" textLength="37.2" x="726.3" y="525.8824">speed: Int</text><text fill="#000000" font-family="sans-serif" font-size="8.4" lengthAdjust="spacing" textLength="35.4" x="726.3" y="537.0551">vision: Int</text><text fill="#000000" font-family="sans-serif" font-size="8.4" lengthAdjust="spacing" textLength="57" x="726.3" y="548.2277">Image: Surface</text><text fill="#000000" font-family="sans-serif" font-size="8.4" lengthAdjust="spacing" textLength="39.6" x="726.3" y="559.4004">Rect: Rect</text><text fill="#000000" font-family="sans-serif" font-size="8.4" lengthAdjust="spacing" textLength="58.8" x="726.3" y="570.573">Active: Boolean</text><line style="stroke:#181818;stroke-width:0.3;" x1="723.3" x2="870.3" y1="575.0813" y2="575.0813"/><text fill="#000000" font-family="sans-serif" font-size="8.4" lengthAdjust="spacing" textLength="60.6" x="726.3" y="586.5457">objectif: (Int, Int)</text><text fill="#000000" font-family="sans-serif" font-size="8.4" lengthAdjust="spacing" textLength="141" x="726.3" y="597.7184">&#171;create&#187;(coordonne: (Int, Int) =None)</text><text fill="#000000" font-family="sans-serif" font-size="8.4" lengthAdjust="spacing" textLength="67.8" x="726.3" y="608.891">draw(self, screen)</text><text fill="#000000" font-family="sans-serif" font-size="8.4" lengthAdjust="spacing" textLength="64.2" x="726.3" y="620.0637">co(self) : (Int, Int)</text><text fill="#000000" font-family="sans-serif" font-size="8.4" lengthAdjust="spacing" textLength="129.6" x="726.3" y="631.2363">ChoisirObjectif(self, ListeHumains)</text><text fill="#000000" font-family="sans-serif" font-size="8.4" lengthAdjust="spacing" textLength="49.8" x="726.3" y="642.409">avancer(self)</text><text fill="#000000" font-family="sans-serif" font-size="8.4" lengthAdjust="spacing" textLength="100.8" x="726.3" y="653.5816">update(self, ListeHumains)</text><text fill="#000000" font-family="sans-serif" font-size="8.4" lengthAdjust="spacing" textLength="60.6" x="726.3" y="664.7543">hurt(self, degat)</text><text fill="#000000" font-family="sans-serif" font-size="8.4" lengthAdjust="spacing" textLength="33" x="726.3" y="675.927">info(self)</text><text fill="#000000" font-family="sans-serif" font-size="8.4" lengthAdjust="spacing" textLength="83.4" x="726.3" y="687.0996">check_click(self, bool)</text></g><!--class Menu--><g id="elem_Menu"><rect codeLine="102" fill="#F1F1F1" height="107.0086" id="Menu" rx="1.5" ry="1.5" style="stroke:#181818;stroke-width:0.3;" width="108" x="866.4" y="285"/><ellipse cx="907.35" cy="294.6" fill="#ADD1B2" rx="6.6" ry="6.6" style="stroke:#181818;stroke-width:0.6;"/><path d="M909.0094,292.125 Q909.1031,291.9938 909.2156,291.9281 Q909.3281,291.8625 909.4594,291.8625 Q909.6844,291.8625 909.825,292.0219 Q909.9656,292.1719 909.9656,292.5375 L909.9656,293.4094 Q909.9656,293.775 909.825,293.9344 Q909.6844,294.0938 909.4594,294.0938 Q909.2531,294.0938 909.1313,293.9719 Q909.0094,293.8594 908.9438,293.55 Q908.9156,293.3344 908.8031,293.2219 Q908.6062,292.9969 908.2406,292.8656 Q907.875,292.7344 907.5,292.7344 Q907.0406,292.7344 906.6563,292.9313 Q906.2813,293.1281 905.9812,293.5781 Q905.6906,294.0281 905.6906,294.6469 L905.6906,295.3031 Q905.6906,296.0438 906.225,296.5406 Q906.7594,297.0281 907.7156,297.0281 Q908.2781,297.0281 908.6719,296.8781 Q908.9063,296.7844 909.1594,296.5219 Q909.3188,296.3625 909.4031,296.3156 Q909.4969,296.2688 909.6188,296.2688 Q909.8156,296.2688 909.9656,296.4281 Q910.125,296.5781 910.125,296.7844 Q910.125,296.9906 909.9187,297.2344 Q909.6188,297.5813 909.1406,297.7781 Q908.4938,298.05 907.7156,298.05 Q906.8063,298.05 906.0844,297.675 Q905.4938,297.375 905.0813,296.7375 Q904.6687,296.0906 904.6687,295.3219 L904.6687,294.6281 Q904.6687,293.8313 905.0344,293.1469 Q905.4094,292.4531 906.0656,292.0875 Q906.7219,291.7125 907.4625,291.7125 Q907.9031,291.7125 908.2875,291.8156 Q908.6813,291.9094 909.0094,292.125 Z " fill="#000000"/><text fill="#000000" font-family="sans-serif" font-size="8.4" lengthAdjust="spacing" textLength="21" x="919.65" y="298.0781">Menu</text><line style="stroke:#181818;stroke-width:0.3;" x1="867" x2="973.8" y1="304.2" y2="304.2"/><text fill="#000000" font-family="sans-serif" font-size="8.4" lengthAdjust="spacing" textLength="93.6" x="870" y="315.6645">display_surface: Surface</text><text fill="#000000" font-family="sans-serif" font-size="8.4" lengthAdjust="spacing" textLength="62.4" x="870" y="326.8371">ZoneMenu: Rect</text><text fill="#000000" font-family="sans-serif" font-size="8.4" lengthAdjust="spacing" textLength="93.6" x="870" y="338.0098">RectBoutonAjouter: Rect</text><text fill="#000000" font-family="sans-serif" font-size="8.4" lengthAdjust="spacing" textLength="100.8" x="870" y="349.1824">RectBoutonSuprimer: Rect</text><text fill="#000000" font-family="sans-serif" font-size="8.4" lengthAdjust="spacing" textLength="92.4" x="870" y="360.3551">RectBoutonTemps: Rect</text><line style="stroke:#181818;stroke-width:0.3;" x1="867" x2="973.8" y1="364.8633" y2="364.8633"/><text fill="#000000" font-family="sans-serif" font-size="8.4" lengthAdjust="spacing" textLength="81" x="870" y="376.3277">draw_all(self, screen)</text><text fill="#000000" font-family="sans-serif" font-size="8.4" lengthAdjust="spacing" textLength="45.6" x="870" y="387.5004">update(self)</text></g><!--class BoutonMEtat--><g id="elem_BoutonMEtat"><rect codeLine="116" fill="#F1F1F1" height="151.6992" id="BoutonMEtat" rx="1.5" ry="1.5" style="stroke:#181818;stroke-width:0.3;" width="283.2" x="892.2" y="500.7"/><ellipse cx="1006.95" cy="510.3" fill="#ADD1B2" rx="6.6" ry="6.6" style="stroke:#181818;stroke-width:0.6;"/><path d="M1008.6094,507.825 Q1008.7031,507.6937 1008.8156,507.6281 Q1008.9281,507.5625 1009.0594,507.5625 Q1009.2844,507.5625 1009.425,507.7219 Q1009.5656,507.8719 1009.5656,508.2375 L1009.5656,509.1094 Q1009.5656,509.475 1009.425,509.6344 Q1009.2844,509.7938 1009.0594,509.7938 Q1008.8531,509.7938 1008.7312,509.6719 Q1008.6094,509.5594 1008.5437,509.25 Q1008.5156,509.0344 1008.4031,508.9219 Q1008.2063,508.6969 1007.8406,508.5656 Q1007.475,508.4344 1007.1,508.4344 Q1006.6406,508.4344 1006.2562,508.6312 Q1005.8812,508.8281 1005.5813,509.2781 Q1005.2906,509.7281 1005.2906,510.3469 L1005.2906,511.0031 Q1005.2906,511.7438 1005.825,512.2406 Q1006.3594,512.7281 1007.3156,512.7281 Q1007.8781,512.7281 1008.2719,512.5781 Q1008.5062,512.4844 1008.7594,512.2219 Q1008.9187,512.0625 1009.0031,512.0156 Q1009.0969,511.9688 1009.2188,511.9688 Q1009.4156,511.9688 1009.5656,512.1281 Q1009.725,512.2781 1009.725,512.4844 Q1009.725,512.6906 1009.5188,512.9344 Q1009.2188,513.2813 1008.7406,513.4781 Q1008.0938,513.75 1007.3156,513.75 Q1006.4063,513.75 1005.6844,513.375 Q1005.0938,513.075 1004.6813,512.4375 Q1004.2688,511.7906 1004.2688,511.0219 L1004.2688,510.3281 Q1004.2688,509.5313 1004.6344,508.8469 Q1005.0094,508.1531 1005.6656,507.7875 Q1006.3219,507.4125 1007.0625,507.4125 Q1007.5031,507.4125 1007.8875,507.5156 Q1008.2813,507.6094 1008.6094,507.825 Z " fill="#000000"/><text fill="#000000" font-family="sans-serif" font-size="8.4" lengthAdjust="spacing" textLength="48.6" x="1019.25" y="513.7781">BoutonMEtat</text><line style="stroke:#181818;stroke-width:0.3;" x1="892.8" x2="1174.8" y1="519.9" y2="519.9"/><text fill="#000000" font-family="sans-serif" font-size="8.4" lengthAdjust="spacing" textLength="49.2" x="895.8" y="531.3645">Bouton: Rect</text><text fill="#000000" font-family="sans-serif" font-size="8.4" lengthAdjust="spacing" textLength="57" x="895.8" y="542.5371">Image: Surface</text><text fill="#000000" font-family="sans-serif" font-size="8.4" lengthAdjust="spacing" textLength="57" x="895.8" y="553.7098">Couleur: String</text><text fill="#000000" font-family="sans-serif" font-size="8.4" lengthAdjust="spacing" textLength="36.6" x="895.8" y="564.8824">Active: Int</text><text fill="#000000" font-family="sans-serif" font-size="8.4" lengthAdjust="spacing" textLength="38.4" x="895.8" y="576.0551">t: Boolean</text><line style="stroke:#181818;stroke-width:0.3;" x1="892.8" x2="1174.8" y1="580.5633" y2="580.5633"/><text fill="#000000" font-family="sans-serif" font-size="8.4" lengthAdjust="spacing" textLength="56.4" x="895.8" y="592.0277">Borne: (Int, Int)</text><text fill="#000000" font-family="sans-serif" font-size="8.4" lengthAdjust="spacing" textLength="61.8" x="895.8" y="603.2004">Etats: List&lt;Int&gt;()</text><text fill="#000000" font-family="sans-serif" font-size="8.4" lengthAdjust="spacing" textLength="276" x="895.8" y="614.373">&#171;create&#187;(position, taille, Borne=(0,2), Etats=('#ffffff', '#000000', '#7f7f7f'))</text><text fill="#000000" font-family="sans-serif" font-size="8.4" lengthAdjust="spacing" textLength="62.4" x="895.8" y="625.5457">check_click(self)</text><text fill="#000000" font-family="sans-serif" font-size="8.4" lengthAdjust="spacing" textLength="67.8" x="895.8" y="636.7184">draw(self, screen)</text><text fill="#000000" font-family="sans-serif" font-size="8.4" lengthAdjust="spacing" textLength="46.2" x="895.8" y="647.891">disable(self)</text></g><!--link Menu to BoutonMEtat--><g id="link_Menu_BoutonMEtat"><path codeLine="114" d="M945.708,391.89 C961.014,423.882 979.2238,461.9448 996.1558,497.3208 " fill="none" id="Menu-to-BoutonMEtat" style="stroke:#181818;stroke-width:0.6;"/><polygon fill="#181818" points="997.71,500.568,997.5435,494.661,996.4148,497.862,993.2139,496.7333,997.71,500.568" style="stroke:#181818;stroke-width:0.6;"/><polygon fill="#000000" points="958.7051,412.8811,959.4569,418.5377,962.6382,417.0155,958.7051,412.8811" style="stroke:#000000;stroke-width:0.6;"/><text fill="#000000" font-family="sans-serif" font-size="7.8" lengthAdjust="spacing" textLength="46.8" x="965.4" y="418.817">"appartient &#224;"</text><text fill="#000000" font-family="sans-serif" font-size="7.8" lengthAdjust="spacing" textLength="4.2" x="943.4299" y="405.1576">1</text><text fill="#000000" font-family="sans-serif" font-size="7.8" lengthAdjust="spacing" textLength="4.2" x="964.6105" y="462.9044">3</text><text fill="#000000" font-family="sans-serif" font-size="7.8" lengthAdjust="spacing" textLength="49.2" x="942.1105" y="473.279">BoutonAjouter</text><text fill="#000000" font-family="sans-serif" font-size="7.8" lengthAdjust="spacing" textLength="55.8" x="938.8105" y="483.6536">BoutonSuprimer</text><text fill="#000000" font-family="sans-serif" font-size="7.8" lengthAdjust="spacing" textLength="48" x="942.7105" y="494.0282">BoutonTemps</text></g><!--link Humain to Sprite--><g id="link_Humain_Sprite"><path codeLine="131" d="M532.59,709.056 C536.07,710.748 539.538,712.398 543,714 C574.92,728.778 585.348,725.94 618.6,737.4 C676.026,757.188 732.661,779.4267 765.811,792.7107 " fill="none" id="Humain-to-Sprite" style="stroke:#181818;stroke-width:0.6;"/><polygon fill="none" points="775.836,796.728,767.15,789.369,764.4719,796.0524,775.836,796.728" style="stroke:#181818;stroke-width:0.6;"/></g><!--link Arbre to Sprite--><g id="link_Arbre_Sprite"><path codeLine="132" d="M670.614,652.602 C683.244,673.062 697.608,694.836 712.2,714 C734.508,743.292 756.9102,766.4691 774.5382,783.7251 " fill="none" id="Arbre-to-Sprite" style="stroke:#181818;stroke-width:0.6;"/><polygon fill="none" points="782.256,791.28,777.0565,781.1525,772.02,786.2977,782.256,791.28" style="stroke:#181818;stroke-width:0.6;"/></g><!--link Ours to Sprite--><g id="link_Ours_Sprite"><path codeLine="133" d="M796.8,691.536 C796.8,731.31 796.8,760.236 796.8,780.534 " fill="none" id="Ours-to-Sprite" style="stroke:#181818;stroke-width:0.6;"/><polygon fill="none" points="796.8,791.334,800.4,780.534,793.2,780.534,796.8,791.334" style="stroke:#181818;stroke-width:0.6;"/></g><!--link BoutonMEtat to Sprite--><g id="link_BoutonMEtat_Sprite"><path codeLine="134" d="M955.374,652.644 C903.216,702.828 847.0932,756.8166 818.9952,783.8466 " fill="none" id="BoutonMEtat-to-Sprite" style="stroke:#181818;stroke-width:0.6;"/><polygon fill="none" points="811.212,791.334,821.491,786.441,816.4994,781.2522,811.212,791.334" style="stroke:#181818;stroke-width:0.6;"/></g><!--reverse link Humain to Homme--><g id="link_Humain_Homme"><path codeLine="136" d="M214.5457,722.6176 C198.7297,742.8556 190.344,753.582 178.206,769.116 " fill="none" id="Humain-backto-Homme" style="stroke:#181818;stroke-width:0.6;"/><polygon fill="none" points="221.196,714.108,211.7092,720.4009,217.3823,724.8344,221.196,714.108" style="stroke:#181818;stroke-width:0.6;"/></g><!--reverse link Humain to Femme--><g id="link_Humain_Femme"><path codeLine="137" d="M414.3853,723.4113 C424.8673,741.1893 429.408,748.89 437.898,763.29 " fill="none" id="Humain-backto-Femme" style="stroke:#181818;stroke-width:0.6;"/><polygon fill="none" points="408.9,714.108,411.2842,725.2397,417.4864,721.5829,408.9,714.108" style="stroke:#181818;stroke-width:0.6;"/></g><!--link Monde to Humain--><g id="link_Monde_Humain"><path codeLine="139" d="M734.574,161.04 C665.484,231.588 554.4349,344.9901 464.8909,436.4181 " fill="none" id="Monde-to-Humain" style="stroke:#181818;stroke-width:0.6;"/><polygon fill="#181818" points="462.372,438.99,467.8651,436.8114,464.4711,436.8467,464.4358,433.4528,462.372,438.99" style="stroke:#181818;stroke-width:0.6;"/><polygon fill="#000000" points="644.699,259.2439,639.642,261.8875,642.1617,264.3551,644.699,259.2439" style="stroke:#000000;stroke-width:0.6;"/><text fill="#000000" font-family="sans-serif" font-size="7.8" lengthAdjust="spacing" textLength="46.8" x="648" y="264.617">"appartient &#224;"</text><text fill="#000000" font-family="sans-serif" font-size="7.8" lengthAdjust="spacing" textLength="4.2" x="725.6501" y="163.6059">1</text><text fill="#000000" font-family="sans-serif" font-size="7.8" lengthAdjust="spacing" textLength="12" x="387.0711" y="422.166">0..*</text><text fill="#000000" font-family="sans-serif" font-size="7.8" lengthAdjust="spacing" textLength="138" x="326.4711" y="432.5406">Humains: Group[_SpriteSupportsGroup]</text></g><!--link Monde to Sprite--><g id="link_Monde_Sprite"><path codeLine="140" d="M858.906,104.652 C973.638,119.604 1207.2,158.934 1207.2,231.3 C1207.2,231.3 1207.2,231.3 1207.2,577.2 C1207.2,638.712 1227.972,668.844 1186.2,714 C1135.038,769.302 894.4038,796.0391 821.1798,803.0051 " fill="none" id="Monde-to-Sprite" style="stroke:#181818;stroke-width:0.6;"/><polygon fill="#181818" points="817.596,803.346,823.199,805.2238,820.5825,803.0619,822.7444,800.4454,817.596,803.346" style="stroke:#181818;stroke-width:0.6;"/><polygon fill="#000000" points="1210.3618,335.4917,1208.3083,340.8157,1211.8299,341.0059,1210.3618,335.4917" style="stroke:#000000;stroke-width:0.6;"/><text fill="#000000" font-family="sans-serif" font-size="7.8" lengthAdjust="spacing" textLength="46.8" x="1215.6" y="341.717">"appartient &#224;"</text><text fill="#000000" font-family="sans-serif" font-size="7.8" lengthAdjust="spacing" textLength="4.2" x="863.6211" y="103.0769">1</text><text fill="#000000" font-family="sans-serif" font-size="7.8" lengthAdjust="spacing" textLength="12" x="890.6652" y="790.7585">0..*</text><text fill="#000000" font-family="sans-serif" font-size="7.8" lengthAdjust="spacing" textLength="148.8" x="824.6652" y="801.1331">ListElement: Group[_SpriteSupportsGroup]</text></g><!--link Monde to Arbre--><g id="link_Monde_Arbre"><path codeLine="141" d="M760.782,189.648 C752.538,211.23 743.934,234.174 736.2,255.6 C706.086,339.018 674.8444,432.0854 653.3524,497.1974 " fill="none" id="Monde-to-Arbre" style="stroke:#181818;stroke-width:0.6;"/><polygon fill="#181818" points="652.224,500.616,656.1957,496.2404,653.1643,497.7672,651.6375,494.7359,652.224,500.616" style="stroke:#181818;stroke-width:0.6;"/><polygon fill="#000000" points="740.1893,258.5551,736.7349,263.0971,740.0644,264.2601,740.1893,258.5551" style="stroke:#000000;stroke-width:0.6;"/><text fill="#000000" font-family="sans-serif" font-size="7.8" lengthAdjust="spacing" textLength="46.8" x="744.6" y="264.617">"appartient &#224;"</text><text fill="#000000" font-family="sans-serif" font-size="7.8" lengthAdjust="spacing" textLength="4.2" x="754.8548" y="202.5068">1</text><text fill="#000000" font-family="sans-serif" font-size="7.8" lengthAdjust="spacing" textLength="12" x="596.0398" y="482.861">0..*</text><text fill="#000000" font-family="sans-serif" font-size="7.8" lengthAdjust="spacing" textLength="130.2" x="539.3398" y="493.2356">Arbres: Group[_SpriteSupportsGroup]</text></g><!--link Monde to Ours--><g id="link_Monde_Ours"><path codeLine="142" d="M796.8,189.762 C796.8,267.294 796.8,374.856 796.8,458.034 " fill="none" id="Monde-to-Ours" style="stroke:#181818;stroke-width:0.6;"/><polygon fill="#181818" points="796.8,461.634,799.2,456.234,796.8,458.634,794.4,456.234,796.8,461.634" style="stroke:#181818;stroke-width:0.6;"/><polygon fill="#000000" points="799.8,258.3873,798.0366,263.8144,801.5634,263.8144,799.8,258.3873" style="stroke:#000000;stroke-width:0.6;"/><text fill="#000000" font-family="sans-serif" font-size="7.8" lengthAdjust="spacing" textLength="46.8" x="805.2" y="264.617">"appartient &#224;"</text><text fill="#000000" font-family="sans-serif" font-size="7.8" lengthAdjust="spacing" textLength="4.2" x="792.5048" y="202.626">1</text><text fill="#000000" font-family="sans-serif" font-size="7.8" lengthAdjust="spacing" textLength="12" x="723.6295" y="444.3756">0..*</text><text fill="#000000" font-family="sans-serif" font-size="7.8" lengthAdjust="spacing" textLength="124.2" x="669.9295" y="454.7503">Ours: Group[_SpriteSupportsGroup]</text></g><!--link Monde to Menu--><g id="link_Monde_Menu"><path codeLine="144" d="M844.236,189.72 C860.808,221.946 877.2033,253.8147 891.5613,281.7267 " fill="none" id="Monde-to-Menu" style="stroke:#181818;stroke-width:0.6;"/><polygon fill="#181818" points="893.208,284.928,892.8721,279.0282,891.8357,282.2603,888.6037,281.2239,893.208,284.928" style="stroke:#181818;stroke-width:0.6;"/><polygon fill="#000000" points="870.4278,229.3195,871.3421,234.9521,874.4782,233.339,870.4278,229.3195" style="stroke:#000000;stroke-width:0.6;"/><text fill="#000000" font-family="sans-serif" font-size="7.8" lengthAdjust="spacing" textLength="46.8" x="877.2" y="235.217">"appartient &#224;"</text><text fill="#000000" font-family="sans-serif" font-size="7.8" lengthAdjust="spacing" textLength="4.2" x="842.0903" y="202.5821">1</text><text fill="#000000" font-family="sans-serif" font-size="7.8" lengthAdjust="spacing" textLength="4.2" x="877.2805" y="267.8767">1</text><text fill="#000000" font-family="sans-serif" font-size="7.8" lengthAdjust="spacing" textLength="19.2" x="870.9805" y="278.2513">menu</text></g><!--SRC=[nLPjJzim4FxkNs6L3xHJYc3xC0dHIi1W80sOniI70QfCUYs6n8vifmCn_il-o_xOpYzvQrCwfabBfIQ-kvplddlkd3XXMjCJASP0dyWX230AjkbvhYOi1d8WzcMkz3RTap819iYHL8cSeiL-8kDxOhpsM1X2JcK-0vQVeQIh8Pb4D9Q3KocWLwXsrOs2KaS7jA4zacdgjK6K9708bUoMYMd2nNG4Cn0c2FDip4nXCUOwIzXZoA8f3Ai95-59vSNJCo6nWo5xdB8KDdIck86DStShT4TvohX0ZCnZPW4o2aCXCmu-UpOD3nWvlfQhi4pPGob1Qysby0gT0OpzumNNS9ncKXacJ0NrSUgS5gNu0Z4gxJ-HDtTuuvDjUlds6ZqyFPDTNC-0Lc-JdPrO0M8p77PPbZ458YxZZgY6XzegbbADfH0ewgA_o8RL2_M9Q2riEl2YAdeQIZnMx7iehSQDGVH8B3t0TQU4Yqaf3Y36jn9tK6SXg-3b4zS63X98mRx6PWpZLw5YyIt4zwCuuV5ziBx1j7jatt84r0LBe69XtL5O-M8ssFEYtMskJB0QmvIP6cSSQv4MbcQo7VuINVety8Oc-M3zX_IvCA0OOYKNAEmQvh-7CmLjc5s7-R4AuMBNmAKo6pSmvdjkULzyjhMealOziGA49WPBkPpACP_mYe3jr9x7OHbFomJji5mzKsgpeZv2_cH0rCBxbt0K-JSeXEstj95zdVLy8oysO6cus7FLw5WDx0c8FBG13l-HzXXLO7t3pAnD0Cp-xSdSIB5xXpTG2_Bp78-3j4Nn5T9C1obnM8rOaipXrJYcC4WNNcUhG_lz8UsyknADpOjbiMUnTbjrg5-S762B8VuTDzqDnvwYltvsw4u1GTtiYVXLY7EEETYZTc2M3DoJgic4aZkMTjOX9cohjOFhORT7J3khCgcvxOQ86iRnD8-eyppeRaPlUn5rZWRTzRM9kzOZkhwswIxt-7vYV-kznMgtKf9YhTbDKWCv7Ddz_ezX-z7knyjolUlEvUewmCkjY3yX-dbcJNnCn8_ffepuhp3F2akBpOsDD_HA13r2_b79FBiSUST83ll9e9tmkbDyeBGHOfbZMy8mZbSuRyliLLivg5UbuEln6hTdxlFpHQUkYArjCkzq2nqY5dd7Ju-MTtu3]--></g></svg>